<?xml version="1.0" encoding="UTF-8" standalone="no"?>
<!-- Created with Inkscape (http://www.inkscape.org/) -->

<svg
   width="175"
   height="105"
   viewBox="0 0 46.302085 27.78125"
   version="1.1"
   id="svg1"
   xml:space="preserve"
   inkscape:version="1.3 (0e150ed, 2023-07-21)"
   sodipodi:docname="imaginot.svg"
   xmlns:inkscape="http://www.inkscape.org/namespaces/inkscape"
   xmlns:sodipodi="http://sodipodi.sourceforge.net/DTD/sodipodi-0.dtd"
   xmlns="http://www.w3.org/2000/svg"
   xmlns:svg="http://www.w3.org/2000/svg"><sodipodi:namedview
   id="namedview1"
   pagecolor="#ffffff"
   bordercolor="#000000"
   borderopacity="0.25"
   inkscape:showpageshadow="2"
   inkscape:pageopacity="0.0"
   inkscape:pagecheckerboard="0"
   inkscape:deskcolor="#d1d1d1"
   inkscape:document-units="mm"
   inkscape:zoom="1.4142136"
   inkscape:cx="89.802559"
   inkscape:cy="92.277432"
   inkscape:window-width="1456"
   inkscape:window-height="916"
   inkscape:window-x="0"
   inkscape:window-y="38"
   inkscape:window-maximized="0"
   inkscape:current-layer="layer1" />&#10;     <style
   id="style1">path, ellipse { fill: #d4dbe2; } </style>&#10;     <defs
   id="defs1" /><g
   inkscape:label="Layer 1"
   inkscape:groupmode="layer"
   id="layer1"
   transform="translate(-71.66,-206.83639)"><g
     id="g1"
     transform="translate(-4.3656252,-4.2333335)"><path
       style="stroke-width:0.348201"
       d="m 97.403549,223.0743 c -0.0014,-0.5195 -0.0287,-0.51306 -0.877745,0.20776 -1.459063,1.23873 -1.881452,1.03661 -1.609141,-0.77008 0.05046,-0.33488 0.09193,-0.64621 0.09212,-0.69184 1.98e-4,-0.0455 -0.200017,0.13173 -0.444924,0.39423 -2.069458,2.21792 -2.737781,2.37525 -2.675554,0.62991 0.03174,-0.89015 0.100394,-0.90184 -0.875915,0.14905 -0.447211,0.48136 -0.877495,0.94329 -0.956187,1.02649 -0.247951,0.26216 -0.955963,0.12563 -1.037715,-0.20006 -0.01916,-0.0763 0.02522,-0.40054 0.09858,-0.72057 0.455426,-1.98674 0.962603,-4.64126 0.898933,-4.70493 -0.08639,-0.0864 -1.176441,1.04467 -1.576255,1.6356 -0.29421,0.43483 -0.893801,2.30654 -1.215541,3.79448 -0.04543,0.21016 -0.213152,0.26615 -0.737688,0.24638 -0.597851,-0.0225 -0.596646,-0.0176 -0.267703,-1.10644 0.218095,-0.72196 0.503532,-1.83826 0.781744,-3.05727 0.407202,-1.78421 0.386697,-1.8478 -0.341234,-1.05849 -1.21074,1.31285 -1.29792,1.49688 -1.999763,4.22156 -0.258693,1.0043 -0.254242,0.99817 -0.788624,1.08672 -0.748109,0.124 -0.821125,0.0108 -0.55596,-0.87175 0.412845,-1.37199 0.532619,-1.8216 0.728065,-2.73314 0.115894,-0.54046 0.230152,-1.1595 0.25392,-1.37559 l 0.04322,-0.39286 -0.538554,0.41092 c -0.513585,0.39188 -0.543899,0.4061 -0.65385,0.30659 -0.21167,-0.19155 -0.139238,-0.34104 0.323457,-0.66753 0.575217,-0.40591 1.041391,-0.91803 1.52665,-1.67709 0.459756,-0.71918 0.574508,-0.77361 0.901864,-0.42775 0.401143,0.4238 0.416348,0.64707 0.108841,1.59828 -0.119726,0.37032 -0.206553,0.70462 -0.19296,0.74287 0.04062,0.11439 0.958049,-0.8618 1.528594,-1.62637 0.768227,-1.02953 0.84138,-1.07415 1.249934,-0.76253 0.500796,0.382 0.518635,0.67614 0.105321,1.73667 -0.398083,1.02145 0.615196,0.20653 1.690528,-1.35959 0.456041,-0.66419 0.674927,-0.70734 1.145127,-0.22581 0.303261,0.31057 0.298543,0.43866 -0.05487,1.48952 -0.394981,1.17449 -0.871361,3.5318 -0.823063,4.07283 l 0.02193,0.24569 0.526253,-0.50671 c 0.320319,-0.30842 0.576985,-0.5067 0.655897,-0.5067 0.109017,0 0.14044,-0.0562 0.197488,-0.35315 0.466316,-2.42742 0.730237,-2.9155 2.112885,-3.90753 1.040136,-0.74625 1.283464,-0.81164 2.557234,-0.68718 0.705009,0.0689 0.767749,0.10397 0.637597,0.35556 -0.409246,0.79139 -1.067528,3.88395 -1.067528,5.01517 0,0.92243 1.026049,0.40043 1.201272,-0.61115 m -3.681821,0.92103 c 0.931942,-0.57597 1.691004,-2.19465 1.903801,-4.05978 l 0.03974,-0.34822 -0.268905,-0.0397 c -0.147899,-0.0217 -0.462327,-0.0309 -0.698732,-0.0203 l -0.429825,0.0193 -0.134034,0.33841 c -0.344239,0.86905 -0.753618,2.86804 -0.755615,3.68965 -0.0013,0.59999 0.01689,0.62245 0.343588,0.42054 z"
       id="path1" /><path
       style="stroke-width:0.348201"
       d="m 112.1143,224.16253 c -1.44968,-0.37723 -0.54784,-4.67178 1.35795,-6.46659 1.30221,-1.22639 3.06655,-1.44643 3.40383,-0.42445 0.0937,0.28355 0.0646,0.28544 0.70794,-0.0466 0.61914,-0.31953 0.62182,-0.32302 0.73984,-0.95923 l 0.0976,-0.52621 0.34729,-0.27253 c 0.7453,-0.58487 1.36072,-0.91487 1.36072,-0.72967 0,0.0279 -0.0665,0.21461 -0.14789,0.41479 -0.14171,0.34872 -0.46632,1.48424 -0.46632,1.6312 0,0.0521 0.25092,0.059 0.95199,0.0269 1.13597,-0.0521 1.12256,-0.0748 0.35539,0.60372 l -0.59661,0.52764 h -0.4953 -0.49531 l -0.10343,0.35317 c -0.79698,2.72131 -0.5765,4.70222 0.41207,3.70264 0.39878,-0.40323 0.45415,-0.42681 0.6066,-0.25836 0.11237,0.12428 0.13654,0.31762 0.0396,0.31762 -0.11264,0 -1.05335,0.9431 -1.41872,1.42228 -0.43433,0.5696 -0.64047,0.74395 -0.8167,0.69071 -0.39527,-0.11954 -0.76877,-0.82357 -0.81618,-1.53867 -0.0334,-0.50341 -0.0312,-0.51777 0.51026,-3.18461 0.12346,-0.60805 0.23711,-1.17752 0.25262,-1.2655 0.0312,-0.17697 -0.14652,-0.23715 -0.7048,-0.2386 l -0.26101,-6.9e-4 -6e-5,0.29175 c -3.5e-4,2.79893 -2.94323,6.41788 -4.82133,5.92917 z m 2.02524,-1.20859 c 0.60124,-0.39396 1.35758,-3.72243 1.08009,-4.75305 -0.33029,-1.2266 -1.27826,-0.67276 -1.71132,0.9998 -0.74657,2.88343 -0.47805,4.48007 0.63123,3.75325 z"
       id="path53" /><path
       style="stroke-width:0.348201"
       d="m 105.56307,224.16727 c -0.17321,-0.0498 -0.17185,-0.17268 0.0108,-0.79933 0.61319,-2.12489 1.09625,-4.7202 0.91278,-4.90367 -0.0209,-0.0209 -0.22673,0.12915 -0.45719,0.33376 -0.4459,0.39583 -0.54647,0.43517 -0.67607,0.26447 -0.13651,-0.17988 -0.0998,-0.24674 0.27548,-0.50159 0.35559,-0.24146 0.68192,-0.61346 1.26095,-1.43737 0.3997,-0.56873 0.56449,-0.61387 1.01766,-0.27884 0.43318,0.32028 0.43599,0.51919 0.0273,1.95221 -0.0812,0.28462 -0.14013,0.52494 -0.13104,0.53407 0.0527,0.0527 0.70802,-0.68839 1.31807,-1.49108 1.10808,-1.45804 1.52256,-1.62219 1.91428,-0.75816 0.20696,0.4565 0.17115,0.86475 -0.17796,2.02892 -0.45216,1.50785 -0.69599,3.13026 -0.47042,3.13026 0.0459,0 0.21132,-0.11264 0.36759,-0.2501 0.2079,-0.18299 0.31734,-0.23955 0.40788,-0.21082 0.21593,0.0683 0.13811,0.20421 -0.45017,0.78495 -0.31565,0.31161 -0.73005,0.76525 -0.92091,1.0081 -0.53115,0.67583 -0.68767,0.7304 -1.06943,0.3728 -0.18582,-0.17408 -0.17994,-0.23847 0.13652,-1.49345 0.71784,-2.8467 0.80889,-4.35857 0.23278,-3.86544 -0.83523,0.7149 -1.26807,1.45487 -1.76691,3.02062 -0.79614,2.49886 -0.75682,2.39559 -0.93929,2.46697 -0.20171,0.0789 -0.68063,0.13293 -0.82093,0.0927 z"
       id="path52" /><path
       style="stroke-width:0.348201"
       d="m 103.12524,224.11463 c -0.57478,-0.1793 -0.64989,-0.37963 -0.41012,-1.09385 0.38013,-1.13242 0.92576,-3.80122 0.88121,-4.31018 l -0.0194,-0.21984 -0.40785,0.28447 c -0.30066,0.20972 -0.4419,0.27366 -0.53742,0.24334 -0.23141,-0.0734 -0.15022,-0.25992 0.22368,-0.51384 0.46287,-0.31431 0.7623,-0.64747 1.23756,-1.37692 0.45132,-0.69274 0.5379,-0.72842 0.92307,-0.38047 0.33074,0.2988 0.34542,0.43662 0.12725,1.19428 -0.42092,1.46207 -0.80033,3.17904 -0.89241,4.03828 -0.0501,0.46831 -0.003,0.48394 0.4127,0.13416 0.32052,-0.27028 0.49998,-0.28323 0.57667,-0.0417 0.0316,0.0999 0.008,0.15443 -0.10424,0.22259 -0.32555,0.20078 -0.95552,0.91949 -1.17933,1.34541 -0.30421,0.57886 -0.37197,0.61752 -0.83152,0.47417 z"
       id="path51" /><path
       style="stroke-width:0.348201"
       d="m 79.392046,225.50382 c 0.220024,-0.62131 0.403417,-1.60562 0.762824,-3.23272 0.807203,-3.65436 1.185711,-4.77903 1.817743,-7.98284 0.191257,-0.96948 0.08067,-1.00831 -0.449811,-0.96666 -0.671085,0.0526 -0.400248,-0.33178 0.420276,-0.59655 0.253353,-0.0818 0.788907,-0.26185 1.190118,-0.4002 0.682917,-0.23551 0.738781,-0.24546 0.875218,-0.15605 0.191621,0.12549 0.186979,0.1458 -0.09409,0.41024 -0.14255,0.13415 -0.256747,0.30831 -0.281885,0.42995 -0.02325,0.11249 -0.07905,0.31654 -0.124003,0.45355 -0.413193,2.81554 -1.878114,8.2612 -2.417762,11.0945 0.647078,-0.37258 0.770283,-0.43934 1.144564,-0.50084 0.374279,-0.0615 -0.557809,0.92042 -1.114487,1.3657 -0.55668,0.44528 -3.094434,2.69233 -3.882046,3.51322 -0.787613,0.82087 0.294366,-1.95094 2.15333,-3.4313 z"
       id="path50"
       sodipodi:nodetypes="csssssssssczzzc" /><path
       style="opacity:1;stroke-width:0.532723"
       d="m 96.576389,222.52981 c 0.454175,0 0.878252,-0.59166 1.024171,-1.43249 0.376753,-2.17109 0.955824,-3.09335 2.54557,-4.05423 0.93445,-0.56483 3.3191,-0.4586 2.77225,0.12346 -0.11304,0.12034 -0.20548,0.2482 -0.20548,0.28418 0,0.036 -0.0823,0.2447 -0.18277,0.46378 -0.42401,0.9241 -0.90784,3.20239 -1.08231,5.09671 -0.25542,2.77284 -0.43989,3.96118 -0.53294,4.56266 -0.0931,0.60149 0.0278,0.72522 0.95236,0.85846 0.92443,0.13321 2.44438,0.53766 3.42521,0.55166 0.98085,0.0139 1.25319,0.21266 -0.0122,0.70064 -1.26386,0.48797 -2.89001,0.16867 -3.67314,0.0817 -0.78314,-0.0871 -1.23988,-0.20014 -1.30047,-0.005 -0.2647,0.85879 -1.331842,2.66613 -1.974354,3.34388 -0.174726,0.18428 -0.318039,0.36174 -0.318481,0.39431 -0.001,0.10072 -1.526801,1.37523 -2.022282,1.68976 -2.562614,1.62674 -6.210235,2.43225 -9.442591,2.08527 l -3.2e-5,2e-5 c -0.417883,-0.0448 -1.866437,-0.38296 -2.114273,-0.49347 -1.647818,-0.7348 -2.3323,-1.19539 -2.963976,-1.99453 -1.466789,-1.85564 -0.888225,-4.97717 1.113571,-6.00808 0.139124,-0.0716 0.274099,-0.15313 0.299939,-0.1811 0.0797,-0.0863 1.146662,-0.52715 1.687669,-0.6974 1.610959,-0.50702 5.070018,-0.73731 7.991007,-0.53205 1.409638,0.099 5.087709,0.4156 6.258801,0.5386 l 0.573751,0.0603 0.247396,-1.35087 c 0.136051,-0.74296 0.334044,-2.00628 0.439975,-2.80735 0.10595,-0.8011 0.2059,-1.54968 0.22214,-1.66358 0.0216,-0.15163 -0.241,0.0502 -0.980923,0.75435 -1.527015,1.45295 -1.688365,1.4835 -1.901872,0.36002 -0.130664,-0.6876 -0.091,-0.67934 -0.677707,-0.14111 -1.666145,1.52844 -2.168,1.24439 -1.768648,-1.00111 m -3.540527,13.71777 c 3.948166,-0.26864 5.966823,-1.81137 7.232737,-5.5276 0.361213,-1.06036 0.629152,-0.90461 -1.876574,-1.09078 -1.162854,-0.0864 -2.389139,-0.19517 -2.725072,-0.2417 -3.883504,-0.53781 -10.422604,-0.26081 -11.51513,0.4878 -1.414067,0.96893 -0.668152,3.8421 1.327742,5.1143 0.150589,0.0961 0.294941,0.19832 0.32078,0.22738 0.07522,0.0845 1.131824,0.52461 1.644437,0.68475 1.295116,0.4046 3.093019,0.51581 5.59108,0.34585 z m 8.103561,-13.7411 c 0.737306,-0.70846 0.998056,-1.15729 1.195276,-2.05747 0.0945,-0.43177 0.24947,-1.05149 0.34413,-1.37715 0.20877,-0.71816 0.16562,-0.76685 -0.68105,-0.76899 -0.768773,-9e-4 -0.954749,0.2961 -1.309748,2.0987 -0.486965,2.47262 -0.392023,2.91537 0.451392,2.10491 z"
       id="path55"
       sodipodi:nodetypes="ccssscszzzzzssccsssssscssccscssscssscssscsssscss" /><path
       style="stroke-width:0.514447"
       d="m 104.15848,226.38897 c -0.65783,0.0448 -0.7537,-0.0596 -0.22685,-0.28487 0.65034,-0.27816 1.63143,-0.61521 4.76231,-0.76148 3.13087,-0.14625 6.57323,0.0875 12.05533,-0.32993 0.4854,-0.0369 0.4335,0.0392 -0.22685,0.63022 l -0.56714,0.50764 -2.65255,9e-4 c -1.88819,-0.0146 -6.74438,-0.0547 -8.52035,0.006 -1.77599,0.0592 -2.79789,0.10857 -4.6239,0.23258 z"
       id="path62"
       sodipodi:nodetypes="sszsscczs" /><ellipse
       style="opacity:1;stroke-width:0.0688357"
       id="path64"
       cx="104.9691"
       cy="214.81401"
       rx="0.63666815"
       ry="0.65475565" /></g><g
     id="g819210"
     transform="matrix(1.0887876,0,0,1.0887875,-7.6409352,-25.253481)"><path
       id="path819211"
       style="fill:#0df2f2;fill-opacity:1"
       d="m 104.46359,228.87821 v 0.63498 0.63499 0.21153 0.21191 h 0.42308 v 0.21154 0.21154 h 0.21191 0.21153 v 0.42344 0.42345 h 0.21154 0.21191 v -0.21191 -0.21154 h 1.05806 1.05843 1.26997 v 0.21154 0.21191 h -0.21154 -0.21154 v 0.21154 0.2119 h 0.21154 0.21154 v 0.21154 0.21154 h 0.2119 0.21154 v -0.21154 -0.21154 h 0.21154 0.2119 v -0.2119 -0.21154 h -0.2119 -0.21154 v -0.21191 -0.21154 h 0.84652 0.31768 0.31731 v -0.63498 -0.63498 h -0.52922 -0.52885 v -0.42345 h 0.42308 0.42345 v -0.21154 -0.21154 h -1.48151 -1.48187 v 0.21154 0.21154 h 0.42344 0.42345 v 0.42345 h -1.05843 -1.05843 v -0.21154 -0.21191 h -0.21154 -0.2119 v -0.21154 -0.21154 h -0.21154 -0.21154 v -0.2119 -0.21154 h -0.63498 z m 4.65643,0.84652 h 0.2119 0.21154 v 0.42345 h -0.21154 -0.2119 z" /><path
       style="fill:#f20df2;fill-opacity:1"
       d="m 107.85005,231.20658 v -0.21167 h 0.42333 0.42333 v -0.635 -0.635 h -0.42333 -0.42333 v -0.21166 -0.21167 h 1.48166 1.48167 v 0.21167 0.21166 h -0.42333 -0.42334 v 0.635 0.635 h 0.21167 0.21167 v 0.21167 0.21167 h -1.27 -1.27 z m 1.69333,-0.84667 v -0.635 h -0.21167 -0.21166 v 0.635 0.635 h 0.21166 0.21167 z m -5.08,0 v -0.21166 h 1.05833 1.05834 v 0.21166 0.21167 h -1.05834 -1.05833 z"
       id="path2" /></g><g
     id="g4"
     transform="matrix(1.0887876,0,0,1.0887875,-14.554737,-21.566271)"><path
       id="path3"
       style="fill:#0ef2f2;fill-opacity:1"
       d="m 104.46359,228.87821 v 0.63498 0.63499 0.21153 0.21191 h 0.42308 v 0.21154 0.21154 h 0.21191 0.21153 v 0.42344 0.42345 h 0.21154 0.21191 v -0.21191 -0.21154 h 1.05806 1.05843 1.26997 v 0.21154 0.21191 h -0.21154 -0.21154 v 0.21154 0.2119 h 0.21154 0.21154 v 0.21154 0.21154 h 0.2119 0.21154 v -0.21154 -0.21154 h 0.21154 0.2119 v -0.2119 -0.21154 h -0.2119 -0.21154 v -0.21191 -0.21154 h 0.84652 0.31768 0.31731 v -0.63498 -0.63498 h -0.52922 -0.52885 v -0.42345 h 0.42308 0.42345 v -0.21154 -0.21154 h -1.48151 -1.48187 v 0.21154 0.21154 h 0.42344 0.42345 v 0.42345 h -1.05843 -1.05843 v -0.21154 -0.21191 h -0.21154 -0.2119 v -0.21154 -0.21154 h -0.21154 -0.21154 v -0.2119 -0.21154 h -0.63498 z m 4.65643,0.84652 h 0.2119 0.21154 v 0.42345 h -0.21154 -0.2119 z" /><path
       style="fill:#f20df2;fill-opacity:1"
       d="m 107.85005,231.20658 v -0.21167 h 0.42333 0.42333 v -0.635 -0.635 h -0.42333 -0.42333 v -0.21166 -0.21167 h 1.48166 1.48167 v 0.21167 0.21166 h -0.42333 -0.42334 v 0.635 0.635 h 0.21167 0.21167 v 0.21167 0.21167 h -1.27 -1.27 z m 1.69333,-0.84667 v -0.635 h -0.21167 -0.21166 v 0.635 0.635 h 0.21166 0.21167 z m -5.08,0 v -0.21166 h 1.05833 1.05834 v 0.21166 0.21167 h -1.05834 -1.05833 z"
       id="path4" /></g></g></svg>
